# xmcd
#
# Track frame offsets: 
#        150
#        18357
#        33427
#        61987
#        81382
#        95245
#        115410
#        140182
#        160482
#        179487
#
# Disc length: 2694 seconds
#
# Revision: 0
# Processed by: cddbd v1.5.2PL0 Copyright (c) Steve Scherf et al.
# Submitted via: ExactAudioCopy v0.99pb4
#
DISCID=920a840a
DTITLE=Mighty Joe Young - The Sonet Blues Story
DYEAR=1972
DGENRE=Blues
TTITLE0=Rock Me Baby
TTITLE1=Baby, Please
TTITLE2=Just a Minute
TTITLE3=Drivin' Wheel
TTITLE4=Wishy Washy Woman
TTITLE5=Early in the Morning
TTITLE6=Sweet Kisses
TTITLE7=Lookin' For You
TTITLE8=It's Alright
TTITLE9=I Have the Same Old Blues
EXTD=
EXTT0=
EXTT1=
EXTT2=
EXTT3=
EXTT4=
EXTT5=
EXTT6=
EXTT7=
EXTT8=
EXTT9=
PLAYORDER=
